# xmcd
#
# Track frame offsets:
#	150
#	16807
#	33566
#	62350
#	83464
#	112237
#	150155
#
# Disc length: 2034 seconds
#
# Revision: 7
# Processed by: cddbd v1.5.2PL0 Copyright (c) Steve Scherf et al.
# Submitted via: EasyCDDAExtractor 2010.6.0.0
#
DISCID=4207f007
DTITLE=Spike - Respect
DYEAR=1998
DGENRE=Dance
TTITLE0=Respect (Radio Mix)
TTITLE1=Respect (Tiefschwarz - Radio Mix)
TTITLE2=Respect (Club Anthem Mix)
TTITLE3=Respect (Original Chateau 64 Mix)
TTITLE4=Respect (Tiefschwarz - Maxximum Respect)
TTITLE5=Respect (Sharam's Respectable Mix)
TTITLE6=Respect (DJ Acappella)
EXTD=
EXTT0=
EXTT1=
EXTT2=
EXTT3=
EXTT4=
EXTT5=
EXTT6=
PLAYORDER=
